<svg xmlns="http://www.w3.org/2000/svg" viewBox="0 0 35.85 36.02"><defs><style>.a{fill:#78d2f7;stroke:#231f20;stroke-miterlimit:10;stroke-width:0.3px;}</style></defs><path class="a" d="M234.89,321.18l-5-2.31h0l-1.76-.81h0l-8.1-3.79V310.2c0-2.63.24-6.17-2.43-7.72a.91.91,0,0,0-.41-.14.94.94,0,0,0-.45.16,5.63,5.63,0,0,0-2.44,4.52,16.25,16.25,0,0,0-.08,1.7l0,5.41a.74.74,0,0,1,0,.15l-14.95,6.82,0,3,4.58-.68v2h1.75v-2.27l.6-.09v1.34H208v-1.6l6.35-.94.55,11.5-5.88,2.35,0,2.29,8.14-1.78,8,1.78v-2.3l-5.65-2.44.52-11.4,5.85.9v1.64h1.75v-1.37l.5.08v2.31h1.76v-2l5,.77Z" transform="translate(-199.19 -302.19)"/></svg>
